<?xml version="1.0" encoding="utf-8"?>
<!-- Generator: Adobe Illustrator 16.0.0, SVG Export Plug-In . SVG Version: 6.00 Build 0)  -->
<!DOCTYPE svg PUBLIC "-//W3C//DTD SVG 1.1//EN" "http://www.w3.org/Graphics/SVG/1.1/DTD/svg11.dtd">
<svg version="1.1" id="Layer_1" xmlns="http://www.w3.org/2000/svg" xmlns:xlink="http://www.w3.org/1999/xlink" x="0px" y="0px"
	 width="45px" height="45px" viewBox="0 0 47 47" enable-background="new 0 0 47 47" xml:space="preserve">
<g>
	<path fill="#e4ded7" d="M22.855,3.663c-10.582,0-19.192,8.61-19.192,19.191c0,10.582,8.61,19.192,19.192,19.192
		s19.192-8.61,19.192-19.192C42.047,12.273,33.437,3.663,22.855,3.663 M22.855,45.71C10.253,45.71,0,35.457,0,22.854
		S10.253,0,22.855,0S45.71,10.252,45.71,22.854S35.457,45.71,22.855,45.71"/>
	<path fill="#e4ded7" d="M17.145,18.74c0.031-0.051,0.778-0.521,0.957-0.547c0.179-0.023,2.994,0.297,3.086,0.319
		c0.093,0.021,0.45,0.175,0.484,0.209c0.035,0.033,0.328,0.498,0.324,0.544c-0.002,0.045-0.172,0.403-0.206,0.418
		c-0.033,0.014-1.923-0.102-1.94-0.087c-0.016,0.014-0.179,0.384-0.174,0.398c0.005,0.014,2.084,0.097,2.133,0.119
		c0.045,0.021,0.444,0.614,0.448,0.641s-0.133,0.619-0.153,0.644c-0.02,0.026-0.357,0.145-0.408,0.145
		c-0.05,0-2.03-0.382-2.047-0.366c-0.017,0.015-0.115,0.44-0.108,0.454c0.007,0.014,2.006,0.314,2.038,0.35
		c0.031,0.036,0.116,0.417,0.115,0.468c0,0.053-0.071,0.488-0.101,0.536c-0.027,0.05-0.244,0.242-0.299,0.25
		c-0.054,0.007-1.796-0.365-1.811-0.35c-0.014,0.016-0.106,0.496-0.095,0.511c0.012,0.017,1.891,0.262,1.906,0.292
		c0.015,0.03-0.112,0.534-0.133,0.557c-0.02,0.021-0.207,0.136-0.262,0.15c-0.055,0.017-2.835-0.015-2.887-0.032
		c-0.053-0.016-0.636-0.379-0.66-0.423c-0.024-0.044,0.008-0.76-0.01-0.803s-0.565-0.531-0.596-0.582
		c-0.03-0.05-0.134-0.352-0.127-0.417c0.006-0.065,0.382-0.809,0.38-0.87c-0.003-0.062-0.472-0.699-0.478-0.741
		c-0.006-0.041,0.096-0.31,0.127-0.37c0.032-0.059,0.49-0.521,0.507-0.576c0.016-0.058-0.013-0.29-0.014-0.345
		C17.139,19.181,17.114,18.792,17.145,18.74"/>
	<path fill="#e4ded7" d="M21.911,18.041c-0.031,0.017-0.124,0.426-0.121,0.451c0.004,0.025,0.367,0.56,0.371,0.586
		c0.005,0.026-0.126,0.768-0.123,0.798c0.005,0.029,0.393,0.816,0.417,0.832c0.023,0.016,0.484,0.117,0.508,0.107
		c0.024-0.011,0.248-0.311,0.26-0.365c0.015-0.066-0.247-1.817-0.29-1.869C22.89,18.528,21.941,18.023,21.911,18.041"/>
	<path fill="#e4ded7" d="M28.379,23.642c-0.032-0.05-0.793-0.499-0.972-0.518c-0.18-0.021-2.984,0.384-3.075,0.408
		c-0.093,0.026-0.445,0.188-0.478,0.224c-0.035,0.035-0.313,0.508-0.308,0.553c0.003,0.045,0.183,0.398,0.217,0.412
		c0.034,0.013,1.921-0.158,1.938-0.145c0.016,0.015,0.19,0.379,0.186,0.394c-0.005,0.015-2.081,0.158-2.129,0.182
		c-0.045,0.023-0.425,0.627-0.429,0.654c-0.004,0.026,0.15,0.613,0.171,0.639c0.023,0.025,0.361,0.133,0.412,0.131
		c0.051-0.002,2.019-0.44,2.037-0.426c0.016,0.016,0.127,0.438,0.121,0.451c-0.006,0.014-1.997,0.374-2.027,0.411
		c-0.031,0.036-0.104,0.418-0.102,0.47s0.086,0.485,0.116,0.534c0.03,0.048,0.252,0.234,0.306,0.24
		c0.055,0.005,1.786-0.419,1.801-0.404c0.015,0.016,0.12,0.493,0.109,0.509c-0.011,0.017-1.881,0.317-1.895,0.349
		c-0.015,0.029,0.127,0.53,0.148,0.552c0.021,0.021,0.211,0.129,0.267,0.143c0.056,0.015,2.833-0.099,2.886-0.117
		c0.051-0.018,0.624-0.397,0.646-0.442c0.023-0.044-0.03-0.759-0.013-0.802c0.017-0.043,0.548-0.548,0.578-0.6
		c0.029-0.052,0.124-0.355,0.115-0.421c-0.009-0.063-0.405-0.797-0.405-0.859c0-0.061,0.451-0.712,0.456-0.753
		c0.004-0.042-0.105-0.309-0.139-0.366c-0.033-0.059-0.505-0.507-0.523-0.562c-0.018-0.056,0.005-0.29,0.005-0.345
		C28.399,24.08,28.412,23.691,28.379,23.642"/>
	<path fill="#e4ded7" d="M23.502,23.098c0.031,0.016,0.137,0.421,0.133,0.447c-0.003,0.026-0.257,0.554-0.26,0.581
		c-0.003,0.027,0.149,0.764,0.146,0.794c-0.003,0.029-0.369,0.828-0.391,0.845c-0.022,0.016-0.481,0.131-0.505,0.122
		c-0.025-0.01-0.257-0.304-0.271-0.357c-0.017-0.066,0.193-1.825,0.235-1.878C22.631,23.598,23.471,23.08,23.502,23.098"/>
	<path fill="#e4ded7" d="M26.923,10.174V7.376l-2.734-1.172v3.427c-0.439-0.042-0.884-0.062-1.334-0.062
		c-0.436,0-0.866,0.02-1.291,0.059V7.376L18.83,6.204v3.957c-5.609,1.701-9.687,6.863-9.687,12.967c0,3.602,1.408,6.863,3.725,9.291
		c0.187,0.01,4.772-0.136,4.772-0.136c-3.046-1.844-5.091-5.253-5.091-9.155c0-4.39,2.59-8.158,6.281-9.771v4.624l1.92,0.154
		l0.814,0.143v-5.676c0.423-0.055,0.854-0.085,1.291-0.085c0.453,0,0.898,0.031,1.334,0.091v10.697l2.734-0.412v-9.517
		c3.669,1.624,6.238,5.378,6.238,9.752c0,3.546-1.689,6.687-4.285,8.613l0.119,0.679h3.846c2.311-2.427,3.726-5.696,3.726-9.292
		C36.567,17.039,32.509,11.888,26.923,10.174"/>
	<path fill="#e4ded7" d="M27.406,35.349c-0.602-0.586-1.44-1.539-1.95-2.706c-0.539-1.233-0.64-2.717-0.649-2.882l2.75-0.163
		l-1.375,0.081l1.375-0.083c0.02,0.315,0.134,1.282,0.424,1.944c0.543,1.243,1.81,2.246,1.823,2.258
		C29.804,33.798,28.359,34.737,27.406,35.349"/>
	<path fill="#e4ded7" d="M15.883,28.898c0.009-0.008,1.251-1.041,1.764-2.298c0.276-0.675,0.367-1.66,0.377-1.951l2.755,0.096
		c-0.007,0.165-0.071,1.652-0.58,2.897c-0.646,1.579-1.891,2.791-2.384,3.228C17.226,30.258,15.883,28.898,15.883,28.898"/>
</g>
</svg>
