<svg version="1.1" id="Capa_1" xmlns="http://www.w3.org/2000/svg" xmlns:xlink="http://www.w3.org/1999/xlink" x="0px" y="0px"
	 width="55px" height="55px" viewBox="0 0 55 55" enable-background="new 0 0 55 55" xml:space="preserve"
	 class="svg-color-stroke svg-roll-grey">
<g>
	<path class="roll" fill="none" stroke-linecap="round" stroke-linejoin="round" stroke-dasharray="2,2" d="M22.332,10.134
		c0.314,0.513,0.576,1.157,0.576,1.932c0,0.581-0.167,1.455-0.747,2.356c-0.499,0.878-3.32,3.616-5.646,5.973
		c-0.582,0.484-1.08,1.031-1.493,1.473l-1.329,1.266v15.605l6.06-1.599V24.688c3.487-3.164,6.143-6.021,7.056-7.426
		c1.412-2.613,2.242-4.826,2.242-6.735c0-0.727-0.101-1.426-0.275-2.093"/>
	<path class="roll" fill="none" stroke-width="1.5" stroke-linecap="round" stroke-linejoin="round" d="M7.898,17.097
		l1.479-0.132c0.234-1.324,0.775-2.634,1.501-3.81"/>
	<path class="roll" fill="none" stroke-width="1.5" stroke-linecap="round" stroke-linejoin="round" d="M10.878,13.156
		c1.319-2.144,3.263-3.839,5.139-4.334c2.574-0.679,4.317-0.642,5.396,0.152c0.21,0.241,0.594,0.63,0.92,1.16"/>
	<polyline class="roll" fill="none" stroke-linecap="round" stroke-linejoin="round" stroke-dasharray="2,2" points="
		13.693,45.083 13.693,42.009 19.753,40.409 19.753,43.483 	"/>
	<polyline class="roll" fill="none" stroke-width="1.5" stroke-linecap="round" stroke-linejoin="round" points="13.693,45.083 
		13.693,49.896 19.753,48.296 19.753,43.483 	"/>
	<path class="roll" fill="none" stroke-width="1.5" stroke-linecap="round" stroke-linejoin="round" d="M28.775,8.434
		c-0.504-1.921-1.626-3.563-2.795-4.733c-2.909-2.139-6.145-1.948-9.964-0.939c-2.821,0.746-5.561,2.464-7.968,4.759
		c-2.41,2.629-4.152,5.995-4.815,9.989l4.665-0.413"/>
	<polyline class="roll" fill="none" stroke-width="1.5" stroke-linecap="round" stroke-linejoin="round" points="7.898,17.097 
		7.898,46.614 13.693,45.083 	"/>
	<polyline class="roll" fill="none" stroke-width="1.5" stroke-linecap="round" stroke-linejoin="round" points="7.898,17.097 
		7.898,13.942 10.878,13.156 	"/>
	<polyline class="roll" fill="none" stroke-width="1.5" stroke-linecap="round" stroke-linejoin="round" points="28.775,8.434 
		40.59,5.317 40.59,37.979 19.753,43.483 	"/>
	
		<line class="roll" fill="none" stroke-width="1.5" stroke-linecap="round" stroke-linejoin="round" x1="13.693" y1="45.083" x2="19.753" y2="43.483"/>
	
		<line class="roll" fill="none" stroke-width="1.5" stroke-linecap="round" stroke-linejoin="round" x1="22.332" y1="10.134" x2="28.775" y2="8.434"/>
	
		<line class="roll" fill="none" stroke-width="1.5" stroke-linecap="round" stroke-linejoin="round" x1="10.878" y1="13.156" x2="22.332" y2="10.134"/>
</g>
</svg>
